# xmcd
#
# Track frame offsets:
#	182
#	15282
#	37572
#	60660
#	85577
#	96785
#	112157
#	134407
#	153152
#	162597
#
# Disc length: 2480 seconds
#
# Revision: 1
# Processed by: cddbd v1.5.1PL0 Copyright (c) Steve Scherf et al.
# Submitted via: audiograbber 1.83.01
#
DISCID=6d09ae0a
DTITLE=The Boppin' Blues Band - Sold Out
DYEAR=1994
DGENRE=Mixed
TTITLE0=Next Time You See Me
TTITLE1=Mean Old Frisco
TTITLE2=Dear John Song
TTITLE3=Just Got Back From Baby's
TTITLE4=William Clark Shuffle
TTITLE5=18 Miles From Memphis
TTITLE6=Same Old Blues
TTITLE7=I Had Me A Woman
TTITLE8=Gibson Creek Shuffle
TTITLE9=Celestial Shore
EXTD=
EXTT0=
EXTT1=
EXTT2=
EXTT3=
EXTT4=
EXTT5=
EXTT6=
EXTT7=
EXTT8=
EXTT9=
PLAYORDER=
